<svg width="53" height="53" viewBox="0 0 53 53" fill="none" xmlns="http://www.w3.org/2000/svg">
<g id="&#240;&#159;&#166;&#134; icon &#34;linkedin&#34;">
<g id="Group">
<path id="Vector" d="M33.4563 18.55C31.7637 18.5442 30.0866 18.8722 28.5209 19.5152C26.9553 20.1582 25.5317 21.1037 24.3318 22.2974C23.1319 23.4912 22.1792 24.9098 21.5281 26.4722C20.877 28.0345 20.5404 29.7099 20.5375 31.4025V44.3875C20.5375 44.9146 20.7469 45.4202 21.1197 45.7929C21.4924 46.1656 21.9979 46.375 22.525 46.375H27.1625C27.6897 46.375 28.1952 46.1656 28.5679 45.7929C28.9406 45.4202 29.15 44.9146 29.15 44.3875V31.4025C29.1496 30.8005 29.276 30.2052 29.5211 29.6553C29.7662 29.1055 30.1244 28.6135 30.5723 28.2113C31.0203 27.8092 31.548 27.506 32.121 27.3215C32.694 27.1369 33.2995 27.0753 33.898 27.1404C34.9712 27.2756 35.9576 27.8 36.6699 28.6141C37.3822 29.4282 37.771 30.4754 37.7625 31.5571V44.3875C37.7625 44.9146 37.9719 45.4202 38.3447 45.7929C38.7174 46.1656 39.2229 46.375 39.75 46.375H44.3875C44.9147 46.375 45.4202 46.1656 45.7929 45.7929C46.1656 45.4202 46.375 44.9146 46.375 44.3875V31.4025C46.3721 29.7099 46.0355 28.0345 45.3845 26.4722C44.7334 24.9098 43.7807 23.4912 42.5807 22.2974C41.3808 21.1037 39.9573 20.1582 38.3916 19.5152C36.826 18.8722 35.1489 18.5442 33.4563 18.55Z" fill="white"/>
<path id="Vector_2" d="M14.575 20.5375H8.6125C7.51483 20.5375 6.625 21.4273 6.625 22.525V44.3875C6.625 45.4852 7.51483 46.375 8.6125 46.375H14.575C15.6727 46.375 16.5625 45.4852 16.5625 44.3875V22.525C16.5625 21.4273 15.6727 20.5375 14.575 20.5375Z" fill="white"/>
<path id="Vector_3" d="M11.5938 16.5625C14.3379 16.5625 16.5625 14.3379 16.5625 11.5938C16.5625 8.84959 14.3379 6.625 11.5938 6.625C8.84959 6.625 6.625 8.84959 6.625 11.5938C6.625 14.3379 8.84959 16.5625 11.5938 16.5625Z" fill="white"/>
</g>
</g>
</svg>
