<svg width="67" height="67" viewBox="0 0 67 67" fill="none" xmlns="http://www.w3.org/2000/svg">
<g id="&#240;&#159;&#166;&#134; icon &#34;behance outline&#34;">
<g id="Group">
<path id="Vector" d="M33.5 5.58334C27.9786 5.58334 22.5812 7.22063 17.9903 10.2882C13.3995 13.3557 9.8213 17.7157 7.70836 22.8168C5.59541 27.9179 5.04257 33.531 6.11974 38.9463C7.19691 44.3616 9.85571 49.3359 13.7599 53.2401C17.6641 57.1443 22.6384 59.8031 28.0537 60.8803C33.469 61.9574 39.0821 61.4046 44.1832 59.2916C49.2843 57.1787 53.6443 53.6005 56.7118 49.0097C59.7794 44.4188 61.4167 39.0214 61.4167 33.5C61.4167 29.8339 60.6946 26.2038 59.2916 22.8168C57.8887 19.4298 55.8324 16.3522 53.2401 13.7599C50.6478 11.1676 47.5702 9.11132 44.1832 7.70837C40.7962 6.30543 37.1661 5.58334 33.5 5.58334ZM33.5 55.8333C29.0829 55.8333 24.765 54.5235 21.0923 52.0695C17.4196 49.6155 14.557 46.1275 12.8667 42.0466C11.1763 37.9657 10.7341 33.4752 11.5958 29.143C12.4575 24.8108 14.5846 20.8313 17.7079 17.708C20.8313 14.5846 24.8107 12.4575 29.143 11.5958C33.4752 10.7341 37.9657 11.1763 42.0466 12.8667C46.1275 14.5571 49.6155 17.4196 52.0695 21.0923C54.5235 24.765 55.8333 29.0829 55.8333 33.5C55.8333 39.4232 53.4804 45.1037 49.292 49.2921C45.1037 53.4804 39.4232 55.8333 33.5 55.8333Z" fill="white"/>
<path id="Vector_2" d="M29.3683 32.8858C30.279 32.7008 31.0939 32.1973 31.6669 31.4657C32.2399 30.7341 32.5335 29.8222 32.495 28.8937C32.495 26.1021 30.3454 24.4271 27.0791 24.4271H19.5416V42.5729H27.0791C30.7083 42.4333 33.5 40.5629 33.5 37.3246C33.5261 36.7604 33.4394 36.1966 33.2449 35.6664C33.0504 35.1362 32.752 34.6501 32.3672 34.2367C31.9824 33.8233 31.5189 33.4908 31.004 33.2589C30.489 33.0269 29.9329 32.9001 29.3683 32.8858ZM23.0591 26.9954H26.2695C27.9445 26.9954 28.9216 27.8887 28.9216 29.3683C28.9216 30.8479 27.8608 31.8529 25.432 31.8529H23.0591V26.9954ZM25.8508 39.7533H23.0591V34.3375H26.4929C28.5866 34.3375 29.7591 35.3983 29.7591 37.1291C29.7591 38.86 28.5866 39.7533 25.7391 39.7533H25.8508Z" fill="white"/>
<path id="Vector_3" d="M41.1771 28.7542C40.3306 28.6837 39.4789 28.7971 38.6803 29.0866C37.8818 29.3762 37.1553 29.835 36.5507 30.4316C35.9461 31.0283 35.4777 31.7486 35.1776 32.5433C34.8775 33.3379 34.7528 34.1881 34.8121 35.0354V36.2917C34.7434 37.1633 34.8659 38.0394 35.1711 38.8587C35.4763 39.678 35.9568 40.4207 36.579 41.0349C37.2012 41.6491 37.95 42.12 38.7732 42.4146C39.5964 42.7092 40.474 42.8204 41.3446 42.7404C42.7226 42.9041 44.1122 42.5488 45.2425 41.7436C46.3728 40.9385 47.1627 39.7413 47.4583 38.3854H44.0804C43.9057 38.9661 43.5268 39.464 43.0137 39.7873C42.5007 40.1105 41.888 40.2373 41.2888 40.1442C40.862 40.1549 40.4379 40.074 40.045 39.9069C39.6521 39.7398 39.2996 39.4905 39.0113 39.1756C38.7229 38.8608 38.5054 38.4879 38.3733 38.0819C38.2413 37.6759 38.1978 37.2463 38.2458 36.8221V36.4313H47.4583V35.1192C47.5241 34.2738 47.4074 33.4241 47.1162 32.6277C46.8249 31.8313 46.366 31.1067 45.7703 30.5032C45.1747 29.8996 44.4563 29.4311 43.6639 29.1293C42.8714 28.8276 42.0233 28.6996 41.1771 28.7542ZM43.9688 34.3375H38.3296C38.2946 33.9504 38.3409 33.5601 38.4654 33.1919C38.5899 32.8236 38.79 32.4854 39.0528 32.199C39.3156 31.9125 39.6354 31.6841 39.9915 31.5284C40.3477 31.3727 40.7325 31.293 41.1213 31.2946C41.51 31.293 41.8948 31.3727 42.251 31.5284C42.6072 31.6841 42.9269 31.9125 43.1897 32.199C43.4525 32.4854 43.6526 32.8236 43.7771 33.1919C43.9017 33.5601 43.9479 33.9504 43.9129 34.3375H43.9688Z" fill="white"/>
<path id="Vector_4" d="M36.9896 25.6834H45.3646V27.0792H36.9896V25.6834Z" fill="white"/>
</g>
</g>
</svg>
