<svg width="54" height="54" viewBox="0 0 54 54" fill="none" xmlns="http://www.w3.org/2000/svg">
<g id="&#240;&#159;&#166;&#134; icon &#34;at&#34;">
<path id="Vector" d="M29.25 4.50002C23.9296 3.98908 18.6011 5.38883 14.2187 8.4486C9.83623 11.5084 6.68618 16.0283 5.3326 21.1989C3.97903 26.3696 4.51035 31.8532 6.83142 36.6678C9.15248 41.4824 13.1117 45.3135 18 47.475C20.831 48.7552 23.8935 49.4443 27 49.5C31.9455 49.5004 36.7533 47.8715 40.68 44.865C41.1539 44.5036 41.4651 43.969 41.5452 43.3784C41.6254 42.7879 41.468 42.1896 41.1075 41.715C40.9284 41.4772 40.7039 41.2772 40.4469 41.1267C40.1899 40.9763 39.9057 40.8784 39.6106 40.8386C39.3155 40.7988 39.0154 40.818 38.7278 40.8951C38.4402 40.9722 38.1707 41.1055 37.935 41.2875C35.6015 43.0502 32.8736 44.2177 29.9874 44.6891C27.1012 45.1606 24.1436 44.9216 21.3705 43.9931C18.5974 43.0645 16.0923 41.4743 14.0719 39.3599C12.0516 37.2456 10.5768 34.6708 9.77521 31.8584C8.97362 29.0459 8.86935 26.0805 9.47142 23.2187C10.0735 20.357 11.3638 17.685 13.2307 15.4339C15.0975 13.1829 17.4847 11.4206 20.1858 10.2996C22.8868 9.17854 25.8203 8.73249 28.7325 9.00002C33.2521 9.52313 37.4171 11.7037 40.422 15.12C43.4269 18.5363 45.058 22.9456 45 27.495V29.025C44.9974 29.5419 44.8907 30.053 44.6862 30.5277C44.4818 31.0025 44.1837 31.4311 43.8099 31.7881C43.4361 32.1452 42.9942 32.4232 42.5105 32.6056C42.0269 32.7881 41.5115 32.8712 40.995 32.85C39.965 32.7369 39.0162 32.2376 38.3397 31.4526C37.6633 30.6676 37.3097 29.6554 37.35 28.62V18.9C37.35 18.3033 37.113 17.731 36.691 17.309C36.269 16.8871 35.6967 16.65 35.1 16.65C34.5507 16.6454 34.0186 16.8419 33.6041 17.2024C33.1896 17.563 32.9214 18.0628 32.85 18.6075C30.7561 16.6356 27.9863 15.5406 25.11 15.5475C23.1552 15.5622 21.2366 16.077 19.537 17.0429C17.8374 18.0089 16.4134 19.3938 15.4005 21.0658C14.3876 22.7379 13.8196 24.6413 13.7505 26.595C13.6814 28.5487 14.1136 30.4876 15.0059 32.2269C15.8982 33.9663 17.2208 35.4484 18.8479 36.5319C20.4751 37.6155 22.3525 38.2645 24.3014 38.4172C26.2503 38.5699 28.2059 38.2212 29.9819 37.4042C31.7579 36.5872 33.2953 35.3292 34.4475 33.75C35.1006 34.7603 35.9705 35.6125 36.9941 36.2446C38.0177 36.8767 39.1692 37.2728 40.3651 37.4042C41.5609 37.5357 42.7709 37.3991 43.9074 37.0044C45.0438 36.6097 46.0781 35.9669 46.935 35.1225C47.7598 34.3379 48.4134 33.3912 48.8548 32.3418C49.2962 31.2925 49.5159 30.1633 49.5 29.025V27.495C49.5503 21.8407 47.5115 16.3669 43.7744 12.1233C40.0374 7.87966 34.8653 5.16504 29.25 4.50002ZM25.155 33.9525C23.7799 33.9525 22.4357 33.5448 21.2924 32.7808C20.1491 32.0169 19.258 30.931 18.7317 29.6606C18.2055 28.3902 18.0678 26.9923 18.3361 25.6437C18.6044 24.295 19.2665 23.0562 20.2388 22.0839C21.2112 21.1115 22.45 20.4494 23.7986 20.1811C25.1473 19.9128 26.5452 20.0505 27.8156 20.5768C29.086 21.103 30.1719 21.9941 30.9358 23.1374C31.6998 24.2808 32.1075 25.6249 32.1075 27C32.1016 28.8421 31.3672 30.6071 30.0646 31.9096C28.7621 33.2122 26.9971 33.9466 25.155 33.9525Z" fill="white"/>
</g>
</svg>
